# xmcd
# 
# Track frame offsets:
#     150
#     12238
#     28174
#     40434
#     50966
#     63165
#     75767
#     88649
#     100456
#     115231
#     128683
#     141672
#     153961
#     167650
#     180855
#     192720
#     205928
#     216439
#     229140
#     240309
# 
# Disc length: 3399
# 
# Revision: 2
# Processed by: cddbd v1.5.2PL0 Copyright (c) Steve Scherf et al.
# Submitted via: BonkEnc v1.0.6
# 
DISCID=160d4514
DTITLE=Various Artist - Kings and Queens Of Country
DYEAR=2005
DGENRE=Country
TTITLE0=Tammy Wynette - Stand by your man
TTITLE1=Willie Nelson - Always on my mind
TTITLE2=Patsy Cline - Crazy
TTITLE3=Everly Brothers - All I have to do is dream
TTITLE4=Hank Williams - Your cheatin' heart
TTITLE5=Roy Orbison - Crying
TTITLE6=Jim Reeves - Distant drums
TTITLE7=Johnny Cash - Ring of fire
TTITLE8=George Jones - He stopped loving her today
TTITLE9=Loretta Lynn - Coal miner's daughter
TTITLE10=Waylon Jennings - Are you sure Hank done it this way ?
TTITLE11=Merle Haggard - Oakie from Muskogee
TTITLE12=Jimmy Dean - Big bad John
TTITLE13=Faron Young - It's four in the morning
TTITLE14=Johnny Paycheck - Take this job and shove it
TTITLE15=Tanya Tucker - Delta dawn
TTITLE16=Dolly Parton,Tammy Wynette and Loretta Lynn - Lovesick blues
TTITLE17=Charlie Pride - The Crystal Chandelier
TTITLE18=Willie Nelson and Waylon Jennings - Mama don't let your babies grow up to be cowboys
TTITLE19=Deliverence - Duelling banjos
EXTD=
EXTT0=
EXTT1=
EXTT2=
EXTT3=
EXTT4=
EXTT5=
EXTT6=
EXTT7=
EXTT8=
EXTT9=
EXTT10=
EXTT11=
EXTT12=
EXTT13=
EXTT14=
EXTT15=
EXTT16=
EXTT17=
EXTT18=
EXTT19=
PLAYORDER=
